Coordinates
version=1
nRows=11
nColumns=63
inDegrees=yes

Units are S.I. units (second, meters, Newtons, ...)
If the header above contains a line with 'inDegrees', this indicates whether rotational values are in degrees (yes) or radians (no).

endheader
time	pelvis_tilt	pelvis_list	pelvis_rotation	pelvis_tx	pelvis_ty	pelvis_tz	hip_flexion_r	hip_adduction_r	hip_rotation_r	knee_angle_r	knee_angle_r_beta	ankle_angle_r	subtalar_angle_r	mtp_angle_r	hip_flexion_l	hip_adduction_l	hip_rotation_l	knee_angle_l	knee_angle_l_beta	ankle_angle_l	subtalar_angle_l	mtp_angle_l	L5_S1_Flex_Ext	L5_S1_Lat_Bending	L5_S1_axial_rotation	L4_L5_Flex_Ext	L4_L5_Lat_Bending	L4_L5_axial_rotation	L3_L4_Flex_Ext	L3_L4_Lat_Bending	L3_L4_axial_rotation	L2_L3_Flex_Ext	L2_L3_Lat_Bending	L2_L3_axial_rotation	L1_L2_Flex_Ext	L1_L2_Lat_Bending	L1_L2_axial_rotation	L1_T12_Flex_Ext	L1_T12_Lat_Bending	L1_T12_axial_rotation	Abs_r3	Abs_r2	Abs_r1	Abs_t1	Abs_t2	neck_flexion	neck_bending	neck_rotation	arm_flex_r	arm_add_r	arm_rot_r	elbow_flex_r	pro_sup_r	wrist_flex_r	wrist_dev_r	arm_flex_l	arm_add_l	arm_rot_l	elbow_flex_l	pro_sup_l	wrist_flex_l	wrist_dev_l
0.915254	-4.333872	-0.486885	92.728589	0.242134	0.690746	0.665125	-1.548162	-3.647535	-21.118495	11.898994	0.207677	18.833078	17.572190	0.000000	-1.975968	3.895654	-7.366613	6.250076	0.109084	17.706866	3.046331	0.000000	0.109564	0.026452	-0.002092	0.203472	0.035181	-0.002223	0.180003	0.064316	-0.002223	0.125221	0.064316	-0.001831	0.101741	0.053941	-0.001700	0.062605	0.040974	-0.001569	0.782608	0.299232	-0.011638	0.000000	0.000000	9.148835	3.004985	20.810497	38.048779	4.427405	-5.349828	109.949329	78.584243	-21.892058	11.401641	28.631143	-31.659420	200.656703	11.949572	29.715151	3.979842	-7.398063
0.932203	-4.379824	-0.581608	92.284954	0.242255	0.689967	0.665692	-1.206190	-3.814249	-20.694749	12.249736	0.213798	18.902672	17.567112	0.000000	-1.928762	4.066808	-6.844810	6.073584	0.106004	17.382508	1.668916	0.000000	0.116393	0.082179	0.286905	0.216154	0.109298	0.304837	0.191223	0.199810	0.304837	0.133026	0.199810	0.251042	0.108083	0.167580	0.233111	0.066507	0.127295	0.215179	0.831386	0.929627	1.595681	0.000000	0.000000	8.204964	3.021578	22.786832	35.887742	6.913229	4.086832	110.192171	77.289393	-21.245831	11.453894	30.629999	-29.719690	191.448153	10.478338	34.041062	5.229945	-5.616127
0.949153	-4.435499	-0.735684	91.849830	0.242280	0.689149	0.666392	-0.799825	-3.996785	-20.295540	12.573657	0.219452	18.915491	17.566951	0.000000	-1.783010	4.244277	-6.458140	5.962398	0.104063	17.058457	0.457309	0.000000	0.122963	0.134465	0.615753	0.228355	0.178839	0.654237	0.202016	0.326939	0.654237	0.140535	0.326939	0.538784	0.114184	0.274202	0.500299	0.070261	0.208287	0.461815	0.878314	1.521100	3.424632	0.000000	0.000000	7.457838	3.175373	24.488848	33.881598	8.849564	14.073583	109.596006	76.473989	-20.069021	11.811495	32.983615	-27.818902	179.589020	9.468356	38.476927	5.805534	-3.434446
0.966102	-4.499164	-0.938581	91.448243	0.242214	0.688361	0.667181	-0.356836	-4.185723	-19.954884	12.847448	0.224230	18.868011	17.571462	0.000000	-1.552897	4.418794	-6.221606	5.916220	0.103258	16.742937	-0.528076	0.000000	0.129689	0.182803	0.970381	0.240846	0.243127	1.031030	0.213066	0.444466	1.031030	0.148222	0.444466	0.849083	0.120429	0.372771	0.788435	0.074104	0.283161	0.727786	0.926356	2.067899	5.396968	0.000000	0.000000	6.866450	3.460475	25.942922	32.119876	10.239023	24.066813	108.293688	76.150908	-18.151990	12.426419	35.586653	-26.130373	165.199826	9.061255	42.833512	5.827548	-0.984400
0.983051	-4.586314	-1.162357	91.090776	0.242153	0.687662	0.668046	0.089861	-4.388004	-19.686347	13.070680	0.228126	18.791461	17.577945	0.000000	-1.268741	4.597000	-6.139302	5.934820	0.103582	16.445944	-1.271148	0.000000	0.134633	0.222573	1.343261	0.250028	0.296023	1.427215	0.221189	0.541165	1.427215	0.153872	0.541165	1.175354	0.125021	0.453872	1.091400	0.076930	0.344766	1.007446	0.961673	2.517795	7.470816	0.000000	0.000000	6.401436	3.950725	27.055291	30.693366	11.114908	33.539736	106.526721	76.322959	-15.755928	13.320962	38.421636	-24.823924	148.630644	9.358299	46.858217	5.339064	1.578079
1.000000	-4.698058	-1.385283	90.803193	0.242115	0.687129	0.668996	0.508966	-4.597948	-19.512370	13.231422	0.230932	18.694986	17.592613	0.000000	-0.956776	4.772930	-6.223668	6.008171	0.104862	16.177518	-1.711879	0.000000	0.138633	0.253520	1.718968	0.257456	0.337182	1.826403	0.227761	0.616409	1.826403	0.158444	0.616409	1.504097	0.128735	0.516978	1.396661	0.079215	0.392703	1.289226	0.990244	2.867871	9.560384	0.000000	0.000000	5.968486	4.598014	27.804202	29.692984	11.594269	41.951979	104.473174	76.967583	-12.838161	14.333311	41.347600	-24.015251	129.980910	10.364392	50.361532	4.572457	4.200594
1.016949	-4.794983	-1.581061	90.598438	0.242074	0.686797	0.670048	0.874341	-4.771518	-19.441293	13.327138	0.232602	18.578095	17.615562	0.000000	-0.632284	4.903114	-6.440195	6.151645	0.107366	15.973186	-1.870429	0.000000	0.140423	0.281983	2.080651	0.260779	0.375037	2.210692	0.230701	0.685613	2.210692	0.160489	0.685613	1.820570	0.130397	0.575019	1.690529	0.080238	0.436791	1.560488	1.003027	3.189845	11.571957	0.000000	0.000000	5.511869	5.306665	28.244203	29.259425	11.793625	48.880063	102.307969	78.033963	-9.444623	15.336484	44.196467	-23.758469	109.408705	12.130967	53.279840	3.568605	6.889593
1.033898	-4.911884	-1.713724	90.500664	0.242024	0.686718	0.671240	1.142725	-4.942362	-19.493985	13.361913	0.233209	18.463719	17.652261	0.000000	-0.342299	5.022515	-6.771741	6.343862	0.110721	15.817990	-1.732914	0.000000	0.137767	0.301185	2.424614	0.255847	0.400577	2.576153	0.226338	0.732302	2.576153	0.157454	0.732302	2.121538	0.127931	0.614177	1.969999	0.078720	0.466536	1.818461	0.984057	3.407069	13.484978	0.000000	0.000000	4.959005	6.212839	28.286960	29.430075	11.699310	54.012516	100.234327	79.355290	-6.004682	16.212883	47.115551	-23.428513	91.207892	14.748983	55.365819	2.668430	9.233771
1.050847	-5.000884	-1.788595	90.467010	0.241911	0.686881	0.672510	1.328551	-5.067262	-19.610114	13.340755	0.232840	18.322290	17.686703	0.000000	-0.087767	5.090227	-7.241656	6.571393	0.114692	15.754044	-1.300146	0.000000	0.132043	0.321157	2.743014	0.245218	0.427139	2.914452	0.216934	0.780862	2.914452	0.150912	0.780862	2.400137	0.122615	0.654904	2.228699	0.075450	0.497473	2.057260	0.943173	3.632997	15.255820	0.000000	0.000000	4.329859	7.145660	28.127653	30.231671	11.446689	57.081327	98.388188	80.629207	-2.254057	16.994230	49.278887	-22.925153	77.586094	17.732567	57.331038	1.214471	10.491278
1.067797	-5.072997	-1.805438	90.529797	0.241729	0.687245	0.673865	1.428061	-5.159921	-19.835061	13.282537	0.231824	18.168506	17.727237	0.000000	0.130072	5.120434	-7.766193	6.828589	0.119181	15.777283	-0.629457	0.000000	0.122623	0.340596	3.020499	0.227723	0.452993	3.209281	0.201457	0.828126	3.209281	0.140146	0.828126	2.642937	0.113868	0.694544	2.454156	0.070067	0.527584	2.265375	0.875883	3.852896	16.799112	0.000000	0.000000	3.666557	8.053477	27.816451	31.602840	11.068578	58.052167	96.932720	81.787059	1.475528	17.624754	51.034167	-22.484111	66.371866	21.277021	58.126496	-0.570900	11.304367
1.084746	-5.138502	-1.779500	90.681396	0.241512	0.687745	0.675283	1.461915	-5.236993	-20.166139	13.212814	0.230607	18.019774	17.777369	0.000000	0.323518	5.127229	-8.318338	7.112557	0.124138	15.893877	0.245073	0.000000	0.110111	0.358555	3.257301	0.204487	0.476879	3.460883	0.180901	0.871792	3.460883	0.125846	0.871792	2.850139	0.102249	0.731166	2.646557	0.062917	0.555402	2.442976	0.786510	4.056050	18.116133	0.000000	0.000000	3.032764	8.852230	27.384606	33.393134	10.583229	57.007553	96.053381	82.940451	4.871097	18.149130	52.451707	-22.088278	58.237534	25.252571	57.484499	-2.673657	11.577951
